<svg width="400" height="400" viewBox="0 0 400 400" xmlns="http://www.w3.org/2000/svg">
  <defs>
    <linearGradient id="tiktokGradient" x1="0%" y1="0%" x2="100%" y2="100%">
      <stop offset="0%" style="stop-color:#ff0050;stop-opacity:1" />
      <stop offset="50%" style="stop-color:#00f2ea;stop-opacity:1" />
      <stop offset="100%" style="stop-color:#000000;stop-opacity:1" />
    </linearGradient>
  </defs>
  
  <!-- Background -->
  <rect width="400" height="400" fill="black" rx="80"/>
  
  <!-- TikTok logo -->
  <g transform="translate(200,200) scale(4)">
    <path d="M19.59 6.69a4.83 4.83 0 0 1-3.77-4.25V2h-3.45v13.67a2.89 2.89 0 0 1-5.2 1.74 2.89 2.89 0 0 1 2.31-4.64 2.93 2.93 0 0 1 .88.13V9.4a6.84 6.84 0 0 0-.88-.05A6.33 6.33 0 0 0 5 20.1a6.34 6.34 0 0 0 10.86-4.43v-7a8.16 8.16 0 0 0 4.77 1.52v-3.4a4.85 4.85 0 0 1-.04-.1z" 
          fill="url(#tiktokGradient)"/>
  </g>
  
  <!-- Musical notes decoration -->
  <g transform="translate(320,100)" fill="#ff0050">
    <circle cx="0" cy="0" r="8"/>
    <ellipse cx="-15" cy="10" rx="6" ry="3"/>
    <rect x="-2" y="-20" width="4" height="25"/>
  </g>
  
  <g transform="translate(80,320)" fill="#00f2ea">
    <circle cx="0" cy="0" r="6"/>
    <ellipse cx="-12" cy="8" rx="5" ry="2"/>
    <rect x="-1.5" y="-15" width="3" height="20"/>
  </g>
  
  <!-- TikTok text -->
  <text x="200" y="340" text-anchor="middle" fill="white" font-family="Arial, sans-serif" font-size="24" font-weight="bold">TikTok</text>
</svg>